<?xml version="1.0" encoding="UTF-8"?>
<svg id="Ebene_1" xmlns="http://www.w3.org/2000/svg" version="1.1" width="180" height="22.61" viewBox="0 0 1500 188.4">
  <!-- Generator: Adobe Illustrator 29.5.1, SVG Export Plug-In . SVG Version: 2.1.0 Build 141)  -->
  <defs>
    <style>
      .st0, .st1 {
        fill: #ff5530;
      }

      .st1 {
        fill-rule: evenodd;
      }
    </style>
  </defs>
  <polygon class="st0" points="1108.7 3.9 1073.2 3.9 1003.3 183.9 1039.1 183.9 1050.3 153.8 1100.9 153.8 1089.2 123.8 1061.4 123.8 1090.8 45 1144.8 183.9 1180.7 183.9 1108.7 3.9"/>
  <polygon class="st0" points="1428 3.9 1392.5 3.9 1322.6 183.9 1358.2 183.9 1369.4 153.8 1420 153.8 1408.5 123.8 1380.7 123.8 1409.9 45 1463.9 183.9 1500 183.9 1428 3.9"/>
  <path class="st0" d="M962.6,30.1c-17.7-17.4-39.6-26.2-65.4-26.2h-66.1v30h66.1c17.3,0,31.3,5.5,42.1,16.4s16.3,27.1,16.3,43.6-5.5,32.4-16.3,43.3c-10.8,10.9-24.8,16.4-42.1,16.4h-31.3V63.7h-34.7v119.9h66.1c26,0,48.1-8.7,65.8-26,17.9-17.3,26.6-38.7,26.3-64,0-12-2.2-23.7-6.8-34.7-4.4-10.8-11.4-20.7-20-28.8h0Z"/>
  <path class="st1" d="M364.9,97.9c-6.7,9.6-16.1,16.7-27.1,20.6l39.9,65.7h-37.1l-37-60.2h-34.6v60.4h-34.7v-120.3h34.7v29.9h43.5c3.8.1,7.7-.6,11.2-2.1s6.8-3.5,9.6-6.2c2.8-2.7,5-5.8,6.5-9.3s2.2-8.6,2.1-12.4c0-.3,0,.3,0,0,0-3.5-.7-9-2.1-12.4-1.5-3.5-3.5-6.8-6.2-9.5s-5.8-4.9-9.3-6.2-7.2-2.1-11.1-1.9h-79.1V4.3h78.8c8.1-.1,16.3,1.3,23.8,4.4s14.5,7.7,20.1,13.6c5.8,5.5,10.4,12.3,13.5,19.7,3.1,7.4,4.7,15.4,4.6,23.4.4,11.4-3.2,22.9-10,32.5h0Z"/>
  <path class="st0" d="M1178.7,4h144.9v29.6h-54.3v150.2h-34.3V33.6h-56.3V4Z"/>
  <path class="st0" d="M0,94.4c0-26,9.2-48.2,27.4-66.7C45.7,9.2,67.8,0,93.8,0s48.1,9.2,66.4,27.5c18.2,18.3,27.5,40.7,27.7,66.8v.7c0,25.6-9.2,47.5-27.4,65.7-18.5,18.6-40.7,27.7-66.7,27.7s-48.1-9.2-66.4-27.5C9.2,142.5,0,120.3,0,94.4ZM35.3,94.4c0,16.9,5.6,31.2,16.9,42.9,11.1,12,25,17.9,41.6,17.9s30.6-5.9,41.7-17.6c11.1-11.8,16.7-26.2,16.7-43.2s-5.6-31.5-16.7-43.5c-11.1-12-25.1-17.9-41.7-17.9s-30.3,5.9-41.6,17.9c-11.2,11.9-16.9,26.3-16.9,43.5Z"/>
  <polygon class="st0" points="722.1 3.9 686.6 3.9 616.6 183.9 652.4 183.9 663.5 153.8 714.2 153.8 702.5 123.8 674.7 123.8 704.2 45 758.1 183.9 794.1 183.9 722.1 3.9"/>
  <path class="st0" d="M509.6,93.8h0v30h48.8c-2.5,4.9-5.8,9.5-9.9,13.8-11.1,11.8-25.1,17.6-41.7,17.6s-30.6-5.9-41.6-17.9c-11.2-11.8-16.9-26-16.9-42.9s5.6-31.5,16.9-43.5c11.2-12,25.1-17.9,41.6-17.9s30.6,5.9,41.7,17.9,6.9,8.4,9.3,13h38c-4.4-13.5-12.1-25.6-22.8-36.2-18-18.5-40.2-27.7-66.1-27.7s-48.1,9.2-66.4,27.7c-18.3,18.5-27.4,40.7-27.4,66.7s9.2,48.2,27.4,66.5c18.3,18.3,40.4,27.5,66.4,27.5s48.2-9.2,66.7-27.7c18.2-18,27.4-39.9,27.4-65.7v-1.1h-91.4Z"/>
</svg>